<?xml version="1.0" encoding="UTF-8" standalone="no"?><!DOCTYPE svg PUBLIC "-//W3C//DTD SVG 1.1//EN" "http://www.w3.org/Graphics/SVG/1.1/DTD/svg11.dtd"><svg width="100%" height="100%" viewBox="0 0 8534 8534" version="1.1" xmlns="http://www.w3.org/2000/svg" xmlns:xlink="http://www.w3.org/1999/xlink" xml:space="preserve" xmlns:serif="http://www.serif.com/" style="fill-rule:evenodd;clip-rule:evenodd;stroke-linejoin:round;stroke-miterlimit:2;"><rect id="Artboard1" x="0" y="0" width="8533.33" height="8533.33" style="fill:none;"/><g id="Artboard11" serif:id="Artboard1"><g id="Logo"><g id="Book"><path d="M4792.32,106.514c510.285,266.456 321.079,888.133 1359.06,1960.94c1184.27,1224 2058.96,1295.93 2186.32,1607.24c106.361,259.995 -1270.14,1189.29 -1973.59,1607.24c-805.588,478.626 -2139.04,413.627 -2859.94,1264.52c-610.619,720.731 -78.663,1333.39 -78.663,1333.39c-912.334,-779.982 -908.022,-1709.31 -1682.21,-2810.63c-694.238,-987.591 -1914.5,-1583.6 -1595.42,-2718.12c319.084,-1134.52 1678.14,-1169.97 2588.12,-1406.33c909.979,-236.359 1662.02,-1044.13 2056.32,-838.235Z" style="fill:#9c4713;"/><path d="M4110.75,6021.65c-1138.17,646.342 -1053.77,-577.433 -2071.08,-1822.22c-535.469,-655.199 -1932.05,-1461.12 -1647.01,-2303.37c-247.534,331.199 -308.291,752.3 -296.94,924.002c88.506,578.524 494.982,1086.24 1454.62,1956.42c1082.23,1519.21 1038.17,2372.09 1661.89,2919.86l898.519,-1674.69Z" style="fill:#803d14;"/><path d="M4816.43,60.346c-72.504,-37.859 -155.377,-47.099 -247.989,-32.775c-125.673,19.438 -271.204,83.506 -433.021,171.193c-386.035,209.187 -870.841,554.881 -1412.51,695.574c-456.447,118.558 -1025.45,187.044 -1520.42,367.844c-509.055,185.943 -940.139,489.536 -1104.74,1074.8c-164.825,586.044 64.544,1034 428.16,1461.98c351.008,413.146 828.608,807.732 1174.79,1300.19c384.855,547.479 575.86,1052.39 784.386,1517.18c212.794,474.31 443.768,907.408 906.584,1303.08c20.725,17.719 51.608,16.454 70.814,-2.9c19.207,-19.354 20.235,-50.246 2.359,-70.834c-0,-0 -500.612,-581.36 79.074,-1265.58c353.636,-417.406 858.523,-608.344 1372.79,-755.451c528.703,-151.235 1067.73,-256.577 1474.01,-497.957c495.073,-294.139 1321.52,-840.462 1736.27,-1231.28c111.155,-104.74 193.27,-199.34 234.479,-275.47c35.704,-65.96 41.827,-122.497 24.445,-164.985c-41.535,-101.531 -152.888,-183.57 -327.82,-279.102c-372.913,-203.651 -1045.88,-493.619 -1869.27,-1344.63c-616.524,-637.208 -795.422,-1113.83 -949.236,-1450c-109.056,-238.35 -208.251,-408.677 -423.147,-520.889Zm-48.215,92.336c193.335,100.955 278.525,257.457 376.64,471.893c156.939,343.003 340.043,828.935 969.096,1479.09c834.592,862.59 1516.22,1157.2 1894.2,1363.62c146.91,80.229 246.455,141.854 281.336,227.121c8.177,19.986 -2.847,44.93 -19.642,75.958c-37.444,69.176 -113.306,154.07 -214.308,249.244c-410.303,386.627 -1228.27,926.552 -1718.04,1217.54c-399.314,237.246 -929.805,338.717 -1449.45,487.362c-534.079,152.773 -1056.36,354.78 -1423.62,788.265c-369.72,436.391 -339.3,835.157 -247.143,1094.74c-295.157,-320.085 -471.423,-664.367 -637.17,-1033.81c-210.949,-470.196 -404.88,-980.61 -794.208,-1534.45c-348.058,-495.131 -827.709,-892.345 -1180.62,-1307.73c-340.308,-400.551 -561.528,-817.856 -407.268,-1366.34c154.479,-549.26 562.465,-830.651 1040.21,-1005.16c491.819,-179.646 1057.34,-247.066 1510.87,-364.867c550.308,-142.937 1043.76,-492.287 1435.95,-704.811c125.429,-67.968 239.947,-121.633 342.338,-147.969c91.71,-23.589 172.522,-25.364 240.828,10.303l0.001,0Z" style="fill:#291e16;"/><path id="Pages" d="M7881.81,5739.18c-447.407,-263.816 -405.858,-736.744 -221.586,-1163.33c-492.021,331.738 -1040.61,657.191 -1680.36,972.516c-798.942,225.164 -1402.56,419.076 -1791.15,578.585c-512.852,292.446 -726.526,573.386 -812.482,849.413c-90.191,377.432 -55.484,629.966 67.707,794.016c131.752,138.19 313.412,126.659 510.878,67.707c761.022,-368.526 1471.25,-766.076 2117.38,-1200.26c622.88,-225.865 1252.53,-458.955 1809.62,-898.654Z" style="fill:#efd38e;"/><path id="PagesShadow" d="M7528.96,5039.77c-0,-0 -709.825,780.361 -1977.66,1008.01c-809.185,145.294 -2067.23,656.147 -2132.04,1275.32l143.581,-842.499l2274.15,-891.697l1823.24,-1013.05c-58.125,148.273 -114.661,296.933 -131.268,463.91Z" style="fill:#a6926a;"/><path d="M7564.05,4848.61c-101.433,377.958 -15.005,741.259 255.439,901.732c-572.904,355.939 -1282.3,463.333 -1880.4,858.645c-597.564,394.957 -2075.47,1262.29 -2462.07,1101.78c32.33,59.845 282.608,225.344 446.249,227.741c463.34,7.291 1083.63,-304.729 1785,-781.706c675.106,-404.544 1386.84,-674.786 2111.22,-898.654c367.018,-134.516 602.15,-580.054 602.15,-580.054c-29.274,-136.952 -454.235,-564.47 -857.589,-829.479Z" style="fill:#be774b;"/><path d="M7638,5573.98c163.328,-115.847 306.285,-259.392 380.334,-375.238c-118.012,-116.551 -296.831,-255.687 -451.774,-351.72c-78.756,318.377 -18.053,588.113 71.44,726.958Z" style="fill:#935b38;"/><path d="M7609.22,4858.66c12.663,-40.653 51.13,-167.267 64.119,-175.065c14.139,-8.487 -66.864,10.969 -75.36,27.287c-111.225,213.626 -118.817,493.269 -46.091,718.775c42.85,132.864 113.629,246.737 206.194,318.964c-565.227,335.14 -1254.16,447.087 -1837.37,832.557c-416.803,275.484 -1263.35,781.767 -1865.95,1005.79c-152.411,56.66 -288.882,95.224 -398.28,106.615c-67.778,7.057 -124.425,3.939 -166.679,-13.604c-13.033,-5.412 -28.062,-2.029 -37.52,8.444c-9.458,10.474 -11.296,25.768 -4.589,38.185c14.248,26.373 65.632,72.865 135.242,117.537c99.788,64.038 236.46,126.173 339.84,127.69c467.909,7.349 1095.23,-305.384 1803.44,-786.931c672.514,-402.866 1381.55,-671.913 2103.12,-894.912c0.547,-0.169 1.09,-0.352 1.628,-0.55c377.633,-138.406 615.308,-586.927 615.308,-586.927c3.643,-6.909 4.745,-14.878 3.112,-22.516c-9.428,-44.105 -39.012,-110.31 -107.304,-192.942c-150.017,-181.519 -555.132,-525.623 -732.859,-628.394Zm-17.587,66.516c-35.196,159.962 -24.428,334.774 23.704,484.018c44.044,136.57 119.257,252.011 221.165,312.48c10.016,5.943 30.875,19.051 30.875,26.947c-0,11.645 -20.402,23.888 -30.294,30.034c-572.647,355.779 -1281.78,463.005 -1879.61,858.14c-419.786,277.455 -1272.57,787.035 -1879.48,1012.66c-158.605,58.963 -300.761,98.582 -414.606,110.435c-28.783,2.997 -55.865,4.198 -81.09,3.561c11.404,8.032 23.699,16.277 36.647,24.586c89.758,57.602 211.827,115.775 304.816,117.137c0.012,0 0.024,0.001 0.036,0.001c458.593,7.216 1071.54,-303.849 1765.73,-775.94c0.527,-0.359 1.064,-0.702 1.611,-1.03c677.196,-405.796 1391.06,-677.054 2117.71,-901.662c321.403,-118.277 534.037,-475.618 572.255,-543.817c-12.543,-37.936 -49.711,-92.181 -103.147,-156.839c-145.101,-175.569 -410.599,-417.944 -686.324,-600.709Z" style="fill:#291e16;"/><path d="M6364.1,6877.34c464.821,-214.618 1429.66,-522.764 1807.4,-709.075c299.534,-147.737 330.575,-461.774 176.554,-619.588c0,0 71.161,329.535 -309.263,506.102c-310.622,144.169 -1359.94,463.759 -2005.72,822.561c-591.007,328.371 -2270.41,1532.68 -2547.87,745.76c-401.249,-1137.99 1040.13,-1589.61 2063.15,-1825.62c1004.22,-231.68 2222.56,-1219.12 2623.15,-1550.18c97.382,-80.48 453.454,-416.844 74.911,-688.957c191.478,236.527 -235.491,566.752 -330.201,645.071c-320.977,265.428 -1270.89,988.833 -2210.7,1328.74c-734.443,265.634 -1778,319.289 -2354.98,1203.37c-274.701,420.908 -151.263,1018.74 47.272,1158.16c868.59,609.964 2142.98,-636.198 2966.3,-1016.34Z" style="fill:#4f3423;"/><path d="M6378.08,6907.61c465.025,-214.713 1430.27,-523.05 1808.17,-709.443c324.484,-160.043 352.515,-501.806 185.665,-672.765c-10.377,-10.633 -26.54,-13.114 -39.629,-6.082c-13.089,7.031 -19.944,21.877 -16.808,36.4c-0,0 63.115,304.608 -290.714,468.831c-310.968,144.329 -1361.38,464.457 -2007.88,823.658c-411.615,228.698 -1353.2,885.721 -1976.18,990.031c-249.722,41.813 -446.598,-6.529 -524.059,-226.218c-194.489,-551.594 59.531,-936.068 484.199,-1212.02c435.025,-282.679 1047.05,-452.852 1555.01,-570.041c1009.26,-232.842 2234.3,-1224.25 2636.89,-1556.96c42.588,-35.196 132.572,-117.494 193.562,-221.993c42.529,-72.866 70.742,-156.303 62.456,-242.252c-8.886,-92.176 -59.087,-188.481 -182.885,-277.473c-13.556,-9.744 -32.229,-7.958 -43.692,4.18c-11.462,12.139 -12.176,30.884 -1.672,43.86c67.147,82.944 43.975,178.936 -9.036,268.776c-88.477,149.945 -261.066,283.794 -316.499,329.633c-319.558,264.254 -1265.14,984.678 -2200.8,1323.09c-367.29,132.842 -811.868,212.693 -1236.76,369.85c-431.184,159.483 -841.979,397.982 -1134.8,846.647c-169.958,260.415 -192.611,586.426 -138.926,836.686c36.855,171.809 110.628,307.748 194.955,366.966c356.842,250.591 780.325,199.247 1214.21,18.732c634.068,-263.799 1290.92,-803.862 1785.21,-1032.09l0,-0Zm-27.947,-60.526c-493.684,227.945 -1149.59,767.588 -1782.88,1031.06c-411.019,171.001 -812.259,225.646 -1150.29,-11.736c-74.503,-52.32 -135.522,-174.599 -168.085,-326.392c-50.439,-235.132 -30.112,-541.593 129.572,-786.267c284.168,-435.415 683.643,-665.783 1102.09,-820.556c424.738,-157.099 869.158,-236.892 1236.31,-369.685c943.964,-341.413 1898.21,-1067.8 2220.61,-1334.4c58.219,-48.143 238.508,-189.649 331.431,-347.13c38.733,-65.643 62.388,-133.906 59.616,-200.164c14.441,19.314 25.76,38.771 34.281,58.289c35.688,81.745 21.176,163.459 -12.343,235.842c-53.6,115.749 -155.508,208.755 -200.172,245.667c-398.576,329.397 -1610.22,1312.87 -2609.41,1543.39c-515.061,118.828 -1135.24,292.47 -1576.35,579.1c-451.465,293.361 -717.509,703.688 -510.748,1290.09c89.022,252.478 310.948,317.854 597.941,269.801c629.312,-105.371 1581.76,-766.485 1997.55,-997.507c645.058,-358.403 1693.29,-677.455 2003.56,-821.464c253.625,-117.715 318.456,-299.703 331.298,-420.161c60.482,152.459 -3.511,363.106 -227.367,473.517c-377.577,186.229 -1342.02,494.183 -1806.63,708.706l-0.001,0.001Z" style="fill:#291e16;"/><g><path d="M7485.7,5274.36c-12.033,-12.356 -197.923,136.822 -368.194,242.716c-152.81,95.035 -504.442,268.705 -497.201,284.359c7.242,15.653 372.694,-136.487 528.422,-230.49c196.56,-118.649 349.007,-284.229 336.973,-296.585Z" style="fill:#291e16;"/><path d="M4081.8,7400.65c4.778,16.573 664.127,-271.774 852.458,-365.757c296.586,-148.005 992.452,-636.558 1502.6,-810.95c317.496,-108.534 1068.55,-443.691 1059.92,-458.625c-8.627,-14.935 -777.233,291.821 -1082.04,400.17c-515.647,183.299 -1211.1,662.857 -1508.78,813.679c-182.037,92.23 -828.936,404.911 -824.159,421.483Z" style="fill:#291e16;"/><path d="M5010.36,6410.9c-6.139,-16.118 -513.871,147.171 -767.159,346.675c-229.992,181.154 -768.529,505.986 -761.616,521.787c6.912,15.801 565.5,-291.095 796.697,-470.062c250.856,-194.184 738.217,-382.282 732.078,-398.4Z" style="fill:#c7bf8b;"/><path d="M6467.77,5948.61c2.875,11.133 270.685,-43.095 508.903,-147.087c238.219,-103.992 392.231,-238.898 385.287,-248.063c-6.945,-9.164 -179.061,112.761 -402.847,210.343c-250.676,109.307 -494.218,173.674 -491.343,184.807Z" style="fill:#c7bf8b;"/></g><path d="M4101.77,7119.56c429.366,88.787 723.193,574.65 918.658,1340.52c84.911,-79.002 282.372,-544.064 268.799,-783.103c150.088,33.252 481.304,204.031 668.325,348.08c-110.345,-545.874 -420.538,-1048.09 -937.124,-1446.24c-344.504,151.435 -647.53,352.619 -918.658,540.742Z" style="fill:#930df2;"/><path d="M4078.02,7085.33c-14.745,7.761 8.366,33.279 24.684,36.654c204.795,42.348 407.747,248.755 552.327,466.538c149.441,225.104 228.662,504.285 325.028,881.862c3.637,14.25 14.516,25.527 28.626,29.673c14.111,4.146 29.361,0.546 40.129,-9.472c36.088,-33.577 92.822,-131.932 145.174,-255.15c67.184,-158.127 128.528,-357.132 136.636,-503.673c160.96,52.465 437.735,200.163 601.506,326.305c13.775,10.61 32.691,11.551 47.45,2.359c14.76,-9.191 22.261,-26.582 18.816,-43.625c-112.212,-555.106 -458.527,-1044.27 -983.849,-1449.15c-12.069,-9.302 -131.548,53.241 -145.497,59.373c-347.091,152.572 -506.951,308.794 -791.03,458.309Zm121.022,17.722c244.008,-167.399 513.585,-340.684 815.505,-476.031c462.948,362.931 754.201,811.762 878.095,1300.55c-194.549,-130.016 -462.701,-262.093 -594.399,-291.27c-12.74,-2.823 -26.066,0.486 -36.006,8.939c-9.94,8.454 -15.346,21.076 -14.606,34.103c7.868,138.571 -58.935,355.444 -130.341,523.51c-27.019,63.593 -54.385,120.227 -78.821,162.214c-95.281,-349.871 -212.59,-637.768 -354.941,-852.192c-137.199,-206.664 -298.109,-345.964 -484.484,-409.819l-0.002,-0Z" style="fill:#301941;"/><path d="M3686.43,7325.15c9.454,14.562 457.59,-175.742 621.321,-282.041c150.634,-97.795 286.693,-214.725 449.294,-293.407c398.876,-193.017 1101.52,-477.735 1093.84,-493.305c-7.679,-15.571 -819.315,249.52 -1139.91,399.88c-167.271,78.451 -305.878,199.439 -459.945,299.463c-160.294,104.067 -574.052,354.849 -564.599,369.41Z" style="fill:#291e16;"/></g><g id="Compass"><path d="M4998.02,4275.65c4.26,-1.749 7.41,-5.452 8.454,-9.937c1.043,-4.485 -0.148,-9.199 -3.198,-12.649c-1.471,-1.665 -2.917,-3.301 -4.246,-4.805c-3.859,-4.366 -10.06,-5.809 -15.45,-3.595c-39.848,16.365 -200.2,82.223 -241.805,99.31c-2.524,1.036 -4.464,3.13 -5.303,5.726c-0.839,2.596 -0.493,5.43 0.947,7.747c1.348,2.143 108.417,111.299 115.333,116.409c3.173,2.336 4.838,6.202 4.357,10.112c-0.482,3.911 -3.036,7.257 -6.68,8.754c-19.422,7.98 -49.518,20.341 -65.368,26.851c-6.002,2.463 -12.899,0.081 -16.102,-5.56c-4.578,-8.014 -101.142,-123.011 -103.147,-124.621c-2.789,-2.234 -5.584,-4.402 -8.388,-6.496c-2.302,-1.709 -5.33,-2.088 -7.982,-0.999c-15.229,6.253 -67.775,27.834 -96.898,39.794c-4.518,1.856 -7.844,5.804 -8.905,10.572c-1.061,4.769 0.277,9.754 3.582,13.351c20.673,22.498 57.89,62.997 73.941,80.465c4.609,5.017 11.965,6.413 18.09,3.432c16.926,-8.284 33.048,-17.005 48.333,-26.186c5.386,-3.261 12.324,-2.272 16.584,2.364c8.506,9.251 22.719,24.718 33.627,36.589c3.072,3.345 4.117,8.078 2.74,12.405c-1.377,4.327 -4.965,7.586 -9.405,8.541c-15.758,3.422 -31.138,7.378 -46.145,11.856c-3.176,0.962 -5.635,3.488 -6.51,6.689c-0.875,3.201 -0.043,6.627 2.202,9.071c6.065,6.607 13.548,14.75 18.747,20.407c3.757,4.092 9.751,5.238 14.753,2.822c17.059,-8.285 33.307,-17.01 48.713,-26.2c6.294,-3.786 14.384,-2.621 19.354,2.788c8.024,8.724 20.225,22.001 30.268,32.93c3.502,3.813 4.687,9.212 3.105,14.142c-1.582,4.929 -5.688,8.63 -10.755,9.694c-52.78,14.389 -155.332,57.431 -192.399,79.715c-6.971,5.8 -17.265,5.111 -23.401,-1.566c-8.313,-8.553 -19.641,-20.881 -29.008,-31.074c-3.607,-3.926 -4.926,-9.439 -3.486,-14.573c1.439,-5.133 5.432,-9.157 10.554,-10.635c11.476,-3.322 22.734,-6.765 33.768,-10.331c4.242,-1.383 7.49,-4.827 8.621,-9.143c1.131,-4.315 -0.01,-8.91 -3.029,-12.195c-4.713,-5.133 -9.798,-10.666 -13.756,-14.973c-4.153,-4.521 -10.845,-5.647 -16.249,-2.732c-14.827,8.062 -29.204,16.767 -43.138,26.116c-6.317,4.267 -14.805,3.272 -19.963,-2.341c-9.181,-9.981 -23.476,-25.537 -33.924,-36.906c-2.809,-3.059 -3.832,-7.355 -2.701,-11.351c1.131,-3.996 4.253,-7.12 8.249,-8.253c14.659,-4.172 28.966,-8.538 42.913,-13.104c3.394,-1.12 5.988,-3.886 6.887,-7.345c0.9,-3.459 -0.018,-7.139 -2.436,-9.77c-22.618,-24.616 -74.973,-81.591 -106.646,-116.059c-5.867,-6.384 -8.241,-15.233 -6.358,-23.696c1.884,-8.463 7.786,-15.47 15.806,-18.764c104.894,-43.08 413.07,-169.649 492.325,-202.199c4.318,-1.774 7.511,-5.527 8.569,-10.074c1.058,-4.546 -0.149,-9.324 -3.241,-12.822c-77.996,-88.247 -471.625,-533.606 -538.577,-609.358c-5.878,-6.648 -15.074,-9.29 -23.584,-6.774c-68.466,19.795 -141.926,26.561 -213.539,21.483c-10.698,-0.823 -20.545,5.854 -23.738,16.097c-23.772,76.16 -117.396,376.493 -141.964,455.304c-1.406,4.506 -0.549,9.413 2.3,13.175c2.85,3.763 7.341,5.918 12.058,5.786c34.943,-1.359 69.998,-8.41 102.346,-21.696c59.312,-24.359 73.334,-63.498 74.775,-109.238c0.453,-11.883 10.075,-21.361 21.963,-21.636c21.526,-0.56 54.168,-1.313 76.209,-1.822c6.466,-0.151 12.676,2.53 17.001,7.338c4.326,4.809 6.336,11.266 5.505,17.68c-9.563,65.974 -63.468,125.215 -147.59,159.764c-54.817,22.514 -116.195,32.206 -176.599,30.36c-7.469,-0.272 -14.194,4.491 -16.418,11.626c-1.809,5.73 -3.992,12.735 -6.031,19.274c-1.597,5.118 -0.799,10.684 2.171,15.148c2.97,4.465 7.795,7.351 13.133,7.856c25.422,2.32 51.303,3.799 77.646,4.442c5.085,0.114 9.813,2.637 12.738,6.796c2.926,4.16 3.702,9.463 2.09,14.286c-4.438,13.294 -10.15,30.388 -14.423,43.174c-3.419,10.226 -14.231,15.998 -24.63,13.15c-27.238,-7.422 -54.325,-14.128 -81.255,-20.089c-7.354,-1.617 -14.722,2.662 -16.963,9.851c-2.376,7.619 -5.45,17.481 -8.141,26.112c-1.558,4.997 -0.881,10.424 1.856,14.886c2.737,4.462 7.268,7.525 12.429,8.401c61.545,10.446 244.595,41.516 307.656,52.219c12.098,2.054 20.43,13.272 18.899,25.447c-7.307,58.116 -27.252,216.763 -35.207,280.034c-1.857,14.771 -15.167,25.357 -29.977,23.842c-19.128,-1.956 -44.883,-4.591 -64.47,-6.594c-7.332,-0.75 -14.003,-4.575 -18.355,-10.523c-4.352,-5.949 -5.977,-13.464 -4.472,-20.68c10.866,-52.097 33.949,-162.769 44.99,-215.703c1.604,-7.69 0.006,-15.701 -4.424,-22.187c-4.431,-6.487 -11.312,-10.889 -19.058,-12.192c-55.258,-9.296 -172.476,-29.015 -216.686,-36.452c-9.948,-1.674 -19.602,4.258 -22.604,13.889c-2.404,7.709 -5.27,16.903 -7.779,24.953c-1.537,4.926 -0.796,10.28 2.019,14.604c2.815,4.324 7.411,7.168 12.537,7.756c34.82,3.911 70.298,6.716 106.432,8.43c5.812,0.265 11.162,3.241 14.454,8.038c3.291,4.798 4.142,10.861 2.298,16.379c-4.26,12.759 -9.462,28.325 -13.441,40.235c-3.487,10.427 -14.44,16.385 -25.088,13.647c-37.965,-9.721 -75.631,-18.481 -112.992,-26.235c-6.424,-1.327 -12.806,2.434 -14.758,8.696c-2.588,8.302 -6.155,19.744 -8.938,28.672c-1.057,3.388 -0.513,7.072 1.477,10.01c1.99,2.938 5.21,4.81 8.748,5.085c19.148,1.431 38.605,2.274 58.372,2.531c5.626,0.063 10.883,2.812 14.145,7.395c3.262,4.584 4.137,10.451 2.354,15.787c-3.9,11.692 -8.611,25.79 -12.45,37.28c-4.05,12.113 -16.899,18.911 -29.191,15.444c-18.118,-5.086 -36.171,-9.776 -54.156,-14.057c-7.383,-1.744 -149.424,-26.108 -153.435,-26.534c-17.354,-1.809 -34.639,-3.194 -51.853,-4.137c-5.911,-0.31 -11.339,-3.364 -14.671,-8.257c-3.333,-4.892 -4.188,-11.06 -2.311,-16.675c4.328,-12.973 9.597,-28.741 13.564,-40.612c1.541,-4.61 4.883,-8.401 9.263,-10.508c4.381,-2.107 9.428,-2.351 13.992,-0.678c18.633,6.769 37.655,12.765 57.061,18.005c7.358,1.966 14.989,-2.063 17.516,-9.248c2.786,-7.906 6.382,-18.13 9.301,-26.431c1.291,-3.666 0.866,-7.718 -1.157,-11.037c-2.023,-3.318 -5.429,-5.553 -9.279,-6.086c-37.636,-5.164 -74.913,-9.196 -111.821,-12.045c-5.244,-0.394 -10.014,-3.186 -12.925,-7.565c-2.911,-4.38 -3.639,-9.858 -1.972,-14.845c4.226,-12.656 9.595,-28.722 13.778,-41.24c3.71,-11.098 15.641,-17.163 26.793,-13.621c34.276,10.787 69.336,20.189 105.177,28.234c10.006,2.225 20.096,-3.378 23.497,-13.048c2.868,-8.141 6.309,-17.925 9.233,-26.241c1.594,-4.53 1.105,-9.533 -1.335,-13.669c-2.44,-4.137 -6.583,-6.984 -11.319,-7.781c-49.125,-8.264 -179.631,-30.219 -229.429,-38.596c-11.7,-1.968 -23.314,3.929 -28.629,14.535c-24.535,48.964 -92.712,185.025 -117.379,234.254c-5.255,10.486 -17.218,15.76 -28.504,12.565c-17.748,-5.025 -44.193,-12.512 -64.274,-18.197c-6.781,-1.92 -12.295,-6.864 -14.939,-13.397c-2.645,-6.533 -2.123,-13.92 1.413,-20.017c36.032,-62.117 127.746,-220.228 156.806,-270.325c5.397,-9.305 16.005,-14.28 26.61,-12.48c60.833,10.326 261.423,44.373 320.885,54.465c9.679,1.643 19.135,-3.926 22.392,-13.187c2.496,-7.097 5.457,-15.514 8.088,-22.994c1.703,-4.841 1.12,-10.194 -1.586,-14.555c-2.705,-4.361 -7.242,-7.26 -12.336,-7.884c-24.933,-3 -49.719,-5.291 -74.35,-6.843c-5.589,-0.338 -10.703,-3.256 -13.836,-7.896c-3.134,-4.641 -3.931,-10.475 -2.156,-15.785c4.33,-12.972 9.717,-29.095 13.805,-41.328c1.619,-4.84 5.106,-8.831 9.686,-11.082c4.58,-2.252 9.87,-2.576 14.69,-0.902c23.744,8.159 48.008,15.331 72.784,21.532c12.048,2.98 24.388,-3.682 28.505,-15.39c1.653,-4.668 3.388,-9.601 4.994,-14.167c1.664,-4.734 1.374,-9.935 -0.806,-14.454c-2.181,-4.519 -6.071,-7.983 -10.812,-9.626c-50.691,-17.872 -95.339,-45.01 -127.775,-80.308c-58.67,-63.847 -65.331,-142.268 -19.403,-207.887c7.65,-10.848 22.065,-14.504 33.961,-8.611c16.753,8.046 40.987,20.05 60.013,29.474c6.894,3.415 11.975,9.644 13.936,17.084c1.961,7.44 0.611,15.364 -3.704,21.734c-28.167,40.134 -32.606,77.512 -0.356,115.324c16.566,19.424 37.974,35.474 62.471,47.847c5.13,2.552 11.107,2.779 16.415,0.625c5.309,-2.154 9.437,-6.483 11.338,-11.887c28.51,-80.678 132.273,-375.701 158.013,-448.886c1.485,-4.225 1.141,-8.877 -0.95,-12.837c-2.09,-3.96 -5.737,-6.869 -10.063,-8.026c-68.501,-18.655 -130.984,-48.922 -180.252,-89.554c-4.8,-4.023 -11.457,-5.001 -17.212,-2.53c-86.105,36.949 -735.575,315.845 -879.82,377.786c-6.51,2.796 -11.26,8.573 -12.744,15.501c-1.483,6.927 0.483,14.143 5.277,19.36c53.831,58.581 197.522,214.95 259.094,281.955c6.64,7.225 9.402,17.202 7.424,26.814c-1.979,9.612 -8.456,17.687 -17.41,21.703c-76.842,34.467 -245.844,110.272 -297.145,133.283c-8.994,4.034 -19.559,1.86 -26.228,-5.398c-10.545,-11.475 -26.622,-28.971 -39.535,-43.023c-4.649,-5.059 -6.465,-12.105 -4.841,-18.782c1.624,-6.676 6.474,-12.1 12.928,-14.459c54.651,-19.97 172.797,-63.144 230.796,-84.338c7.475,-2.732 13.093,-9.015 14.974,-16.748c1.882,-7.733 -0.222,-15.895 -5.607,-21.755c-20.207,-21.99 -48.073,-52.314 -63.016,-68.576c-6.479,-7.053 -16.342,-9.92 -25.593,-7.438c-82.523,22.774 -168.922,62.714 -242.015,107.232c-11.97,7.397 -27.506,5.254 -37.027,-5.107c-11.56,-12.545 -27.119,-29.477 -39.792,-43.269c-4.699,-5.115 -6.374,-12.318 -4.413,-18.982c1.96,-6.663 7.269,-11.812 13.989,-13.567c89.798,-23.653 172.873,-53.949 233.265,-86.098c6.34,-3.569 10.701,-9.839 11.841,-17.024c1.141,-7.185 -1.064,-14.498 -5.987,-19.855c-16.434,-17.955 -39.383,-42.929 -54.687,-59.583c-9.758,-10.619 -25.159,-13.918 -38.411,-8.227c-54.553,23.426 -194.558,83.547 -242.41,104.096c-9.777,4.198 -21.139,1.764 -28.338,-6.07c-12.214,-13.293 -31.302,-34.065 -45.46,-49.471c-4.204,-4.575 -5.888,-10.925 -4.504,-16.982c1.384,-6.056 5.659,-11.045 11.433,-13.339c50.306,-19.995 162.661,-64.652 222.368,-88.383c8.845,-3.515 15.395,-11.157 17.515,-20.436c2.121,-9.279 -0.46,-19.007 -6.9,-26.016c-17.216,-18.734 -38.123,-41.487 -50.245,-54.678c-6.208,-6.757 -15.655,-9.506 -24.519,-7.135c-83.81,23.042 -171.666,63.834 -245.554,109.178c-10.266,6.383 -23.621,4.56 -31.801,-4.342c-10.951,-11.892 -26.367,-28.669 -39.393,-42.844c-5.27,-5.736 -7.153,-13.813 -4.964,-21.288c2.189,-7.476 8.132,-13.261 15.663,-15.249c87.901,-23.384 169.112,-53.099 228.566,-84.62c6.544,-3.674 11.049,-10.139 12.23,-17.55c1.181,-7.411 -1.091,-14.955 -6.169,-20.481c-16.975,-18.549 -40.807,-44.483 -57.335,-62.469c-11.413,-12.42 -29.53,-16.068 -44.86,-9.033c-55.514,25.475 -185.362,85.062 -232.389,106.642c-10.371,4.759 -22.627,2.292 -30.347,-6.11c-9.101,-9.903 -21.601,-23.507 -32.801,-35.696c-5.989,-6.517 -8.339,-15.589 -6.267,-24.194c2.072,-8.605 8.293,-15.613 16.592,-18.691c76.624,-28.41 250.279,-92.799 311.004,-115.315c12.972,-4.81 27.565,-1.296 36.926,8.891c53.213,57.908 228.061,248.184 277.174,301.63c7.789,8.476 20,11.266 30.697,7.015c115.99,-46.102 764.813,-303.982 896.153,-356.185c5.541,-2.203 9.834,-6.73 11.741,-12.38c1.908,-5.65 1.236,-11.853 -1.836,-16.964c-25.784,-42.858 -35.939,-87.984 -31.658,-131.928c0.961,-9.29 -5.496,-17.714 -14.716,-19.199c-84.847,-13.726 -462.852,-74.622 -575.445,-92.76c-7.813,-1.26 -15.701,1.779 -20.648,7.957c-4.948,6.177 -6.191,14.538 -3.254,21.888c6.465,15.67 16.784,31.092 31.193,45.682c39.834,40.332 99.401,53.447 176.569,52.03c10.861,-0.203 20.433,7.095 23.115,17.622c2.905,11.345 6.702,26.253 10.071,39.478c1.974,7.749 0.214,15.975 -4.757,22.239c-4.972,6.263 -12.584,9.844 -20.579,9.68c-107.507,-2.808 -208.18,-42.127 -266.463,-105.553c-31.264,-34.023 -47.285,-71.385 -49.304,-108.369c-0.717,-13.246 -10.572,-24.2 -23.668,-26.309c-34.237,-5.658 -92.839,-15.099 -92.839,-15.099c-0,0 -60.321,176.119 -83.305,243.227c-5.07,14.8 -19.989,23.866 -35.46,21.547c-97.278,-14.582 -431.926,-64.743 -527.401,-79.054c-6.234,-0.934 -11.707,-4.647 -14.88,-10.093c-3.173,-5.447 -3.702,-12.039 -1.44,-17.922c5.112,-13.297 11.293,-29.374 15.707,-40.855c3.344,-8.695 12.383,-13.799 21.556,-12.17c69.926,12.421 352.062,62.534 441.167,78.361c15.609,2.772 30.915,-6.226 36.083,-21.214c13.991,-40.578 40.719,-118.095 53.499,-155.158c1.775,-5.148 1.185,-10.817 -1.613,-15.489c-2.797,-4.673 -7.516,-7.87 -12.893,-8.736c-12.807,-2.063 -28.822,-4.643 -40.856,-6.582c-4.775,-0.77 -9.66,0.393 -13.576,3.231c-3.916,2.838 -6.542,7.118 -7.297,11.895c-1.751,11.754 -2.957,23.657 -3.592,35.713c-0.356,7.123 -3.743,13.753 -9.306,18.216c-5.563,4.463 -12.769,6.332 -19.8,5.136c-18.396,-3.073 -42.298,-7.14 -61.326,-10.378c-7.301,-1.243 -13.564,-5.912 -16.84,-12.555c-3.276,-6.642 -3.168,-14.453 0.291,-21.002c6.103,-11.538 11.775,-23.049 17.016,-34.522c1.422,-3.145 1.297,-6.773 -0.337,-9.813c-1.634,-3.04 -4.592,-5.145 -7.999,-5.694c-15.407,-2.486 -39.836,-6.422 -54.984,-8.862c-8.293,-1.335 -16.675,1.798 -22.059,8.245c-19.254,22.237 -46.642,41.516 -81.351,55.77c-115.502,47.438 -268.605,21.387 -341.682,-58.138c-73.077,-79.525 -38.633,-182.602 76.87,-230.04c115.502,-47.437 268.605,-21.386 341.682,58.139c20.564,22.378 32.614,46.621 36.739,70.965c1.435,8.551 8.086,15.28 16.62,16.815c14.145,2.617 35.345,6.43 50.478,9.152c10.445,1.881 20.504,-4.849 22.75,-15.223c2.753,-13.055 4.909,-26.054 6.424,-39.001c0.642,-5.768 3.633,-11.016 8.268,-14.508c4.635,-3.492 10.505,-4.92 16.226,-3.946c17.465,2.94 42.036,7.121 62.404,10.586c7.891,1.344 14.584,6.551 17.828,13.869c3.243,7.318 2.606,15.774 -1.699,22.523c-5.266,8.145 -10.113,16.418 -14.597,24.785c-2.476,4.698 -2.563,10.295 -0.234,15.068c2.328,4.772 6.793,8.149 12.02,9.089c14.033,2.556 31.895,5.769 44.282,7.997c8.503,1.53 16.852,-3.366 19.668,-11.534c11.582,-33.59 40.826,-118.405 55.867,-162.027c2.288,-6.634 1.511,-13.942 -2.121,-19.946c-3.632,-6.005 -9.743,-10.086 -16.681,-11.14c-87.475,-13.29 -354.557,-53.866 -440.613,-66.94c-6.669,-1.013 -12.54,-4.946 -16.015,-10.727c-3.476,-5.781 -4.195,-12.81 -1.962,-19.175c4.118,-11.737 8.898,-25.362 12.655,-36.071c3.754,-10.699 14.726,-17.085 25.883,-15.064c84.57,15.318 421.902,76.417 526.258,95.318c7.747,1.403 14.497,6.116 18.483,12.906c3.985,6.79 4.811,14.981 2.259,22.43c-18.31,53.462 -56.477,164.898 -73.615,214.934c-2.167,6.329 -1.464,13.289 1.926,19.056c3.39,5.767 9.129,9.767 15.713,10.951c20.98,3.774 49.991,8.992 69.53,12.507c12.514,2.249 25.247,-2.596 33.101,-12.595c25.106,-31.809 62.64,-59.466 111.332,-79.465c85.089,-34.946 189.914,-40.037 282.99,-14.783c7.082,1.972 12.687,7.392 14.894,14.405c2.208,7.012 0.72,14.665 -3.956,20.339c-9.517,11.638 -20.462,24.921 -28.202,34.313c-6.018,7.301 -15.929,10.111 -24.884,7.055c-66.644,-22.748 -129.379,-35.363 -192.979,-9.243c-23.765,9.761 -43.7,21.913 -59.563,35.708c-4.769,4.413 -6.631,11.143 -4.808,17.379c1.822,6.236 7.016,10.905 13.41,12.055c111.157,20.249 488.101,88.051 573.218,103.362c10.047,1.805 20.147,-2.883 25.254,-11.721c24.611,-41.98 63.817,-80.119 116.31,-110.666c4.457,-2.572 7.488,-7.048 8.219,-12.142c0.732,-5.095 -0.916,-10.243 -4.469,-13.965c-46.307,-48.614 -185.932,-194.881 -224.736,-235.53c-6.057,-6.347 -15.495,-8.109 -23.434,-4.375c-37.827,17.892 -74.635,37.474 -110.447,58.727c-7.354,4.384 -16.774,3.008 -22.567,-3.296c-8.782,-9.553 -21.911,-23.84 -33.35,-36.289c-5.114,-5.567 -7.035,-13.358 -5.097,-20.664c1.939,-7.306 7.47,-13.119 14.671,-15.419c33.795,-10.83 66.644,-22.063 98.509,-33.718c4.773,-1.756 8.342,-5.798 9.492,-10.753c1.149,-4.955 -0.273,-10.156 -3.786,-13.835c-11.729,-12.289 -27.351,-28.654 -37.367,-39.147c-5.948,-6.232 -15.219,-7.952 -23.006,-4.268c-36.252,17.248 -71.553,36.044 -105.935,56.376c-8.406,4.995 -19.163,3.416 -25.779,-3.784c-8.615,-9.369 -20.743,-22.567 -31.468,-34.239c-5.214,-5.675 -7.174,-13.618 -5.199,-21.068c1.975,-7.45 7.613,-13.378 14.955,-15.724c33.51,-10.746 66.086,-21.89 97.685,-33.444c4.114,-1.513 7.189,-4.995 8.181,-9.265c0.991,-4.269 -0.235,-8.751 -3.261,-11.922c-13.495,-14.137 -33.877,-35.488 -46.33,-48.534c-6.534,-6.847 -16.766,-8.642 -25.24,-4.428c-34.585,17.322 -67.316,36.401 -98.208,57.232c-8.011,5.446 -18.803,4.196 -25.357,-2.937c-10.036,-10.909 -24.789,-26.964 -36.556,-39.768c-4.305,-4.686 -6.048,-11.181 -4.666,-17.393c1.383,-6.212 5.715,-11.355 11.602,-13.773c28.194,-11.579 72.535,-29.79 96.678,-39.706c3.847,-1.579 6.665,-4.958 7.53,-9.025c0.864,-4.068 -0.336,-8.301 -3.208,-11.309c-11.957,-12.526 -29.789,-31.207 -41.982,-43.979c-8.121,-8.507 -20.626,-11.165 -31.504,-6.697c-54.649,22.444 -218.169,89.602 -275.965,113.339c-12.4,5.093 -26.649,2.159 -36.029,-7.417c-45.592,-46.549 -179.483,-183.247 -236.074,-241.025c-5.763,-5.884 -8.223,-14.249 -6.562,-22.316c1.661,-8.067 7.225,-14.78 14.843,-17.909c18.315,-7.522 39.99,-16.424 54.14,-22.235c9.022,-3.706 19.4,-1.297 25.868,6.003c35.437,39.993 148.111,167.158 187.194,211.267c8.087,9.127 21.063,12.138 32.344,7.505c40.205,-16.513 134.578,-55.272 181.617,-74.591c6.241,-2.563 10.814,-8.044 12.217,-14.644c1.403,-6.6 -0.545,-13.467 -5.204,-18.348c-38.718,-40.56 -122.527,-128.355 -169.314,-177.367c-7.511,-7.869 -10.651,-18.941 -8.389,-29.581c2.262,-10.641 9.634,-19.478 19.697,-23.611c19.582,-8.042 41.738,-17.142 57.878,-23.77c13.678,-5.618 29.413,-1.957 39.206,9.122c40.131,45.397 142.92,161.676 180.633,204.338c8.47,9.581 22.078,12.748 33.908,7.889c39.923,-16.397 130.483,-53.59 178.626,-73.362c7.171,-2.945 12.448,-9.211 14.132,-16.777c1.684,-7.567 -0.438,-15.479 -5.684,-21.187c-41.507,-45.17 -128.488,-139.826 -170.489,-185.532c-5.401,-5.878 -7.586,-14.024 -5.852,-21.816c1.733,-7.791 7.168,-14.242 14.551,-17.275c15.21,-6.246 32.879,-13.503 46.206,-18.976c12.211,-5.016 26.263,-1.617 34.832,8.425c41.172,48.249 159.968,187.464 211.812,248.22c5.735,6.721 7.901,15.784 5.824,24.371c-2.078,8.588 -8.146,15.659 -16.319,19.016c-65.415,26.866 -204.038,83.799 -258.456,106.149c-5.203,2.137 -9.051,6.66 -10.325,12.139c-1.275,5.479 0.18,11.236 3.906,15.45c11.519,13.031 26.711,30.217 36.954,41.804c6.788,7.679 17.693,10.216 27.173,6.323c28.512,-11.71 87.935,-36.116 113.967,-46.807c7.618,-3.129 16.378,-1.179 21.95,4.885c8.448,9.193 21.314,23.194 32.75,35.639c5.09,5.541 6.85,13.37 4.621,20.556c-2.23,7.186 -8.112,12.645 -15.444,14.332c-33.791,7.842 -66.38,16.836 -97.778,26.967c-5.581,1.827 -9.869,6.339 -11.409,12.006c-1.54,5.667 -0.125,11.728 3.764,16.128c13.348,15.11 31.189,35.293 41.57,47.036c5.063,5.73 13.256,7.517 20.245,4.416c40.328,-17.953 78.637,-36.758 114.827,-56.466c6.912,-3.783 15.514,-2.364 20.846,3.438c9.135,9.939 23.555,25.631 35.709,38.857c4.627,5.037 6.28,12.129 4.355,18.692c-1.924,6.563 -7.143,11.64 -13.757,13.382c-33.333,8.861 -65.973,18.82 -97.941,29.864c-6.522,2.276 -11.482,7.651 -13.228,14.334c-1.746,6.683 -0.049,13.797 4.526,18.973c10.253,11.61 22.23,25.159 30.408,34.409c5.79,6.553 15.157,8.601 23.153,5.061c39.179,-17.405 76.456,-35.61 111.741,-54.663c9.526,-5.176 21.351,-3.208 28.686,4.774c8.941,9.724 21.208,23.073 31.83,34.633c4.723,5.141 6.41,12.378 4.447,19.077c-1.962,6.698 -7.287,11.881 -14.037,13.662c-35.931,9.569 -71.055,20.414 -105.394,32.517c-5.421,1.929 -9.531,6.423 -10.968,11.995c-1.438,5.571 -0.016,11.493 3.795,15.804c46.554,52.671 175.756,198.829 210.904,238.59c5.417,6.126 13.895,8.555 21.734,6.226c67.652,-19.69 140.212,-26.642 211.067,-22c13.408,0.974 25.73,-7.39 29.773,-20.211c20.767,-65.688 81.861,-259.417 103.107,-326.786c1.782,-5.65 0.78,-11.811 -2.702,-16.606c-3.482,-4.794 -9.031,-7.653 -14.956,-7.706c-107.855,-0.168 -216.58,44.398 -264.497,158.428c-3.568,8.622 -12.688,13.567 -21.861,11.854c-16.109,-2.927 -41.058,-7.587 -59.522,-11.036c-6.252,-1.167 -11.647,-5.087 -14.688,-10.673c-3.041,-5.585 -3.406,-12.243 -0.994,-18.128c51.462,-116.584 222.61,-186.878 390.976,-181.798c7.069,0.245 13.434,-4.254 15.562,-11c0.711,-2.214 1.456,-4.578 2.195,-6.92c1.283,-4.065 0.661,-8.493 -1.693,-12.047c-2.354,-3.555 -6.187,-5.856 -10.431,-6.262c-25.257,-2.34 -50.975,-3.847 -77.152,-4.526c-5.527,-0.132 -10.663,-2.88 -13.84,-7.405c-3.177,-4.525 -4.018,-10.289 -2.266,-15.533c4.597,-13.771 10.373,-31.057 14.522,-43.473c3.026,-9.049 12.599,-14.153 21.799,-11.622c26.583,7.277 53.023,13.874 79.321,19.765c8.097,1.801 16.227,-2.889 18.722,-10.8c0.28,-0.886 0.564,-1.785 0.848,-2.686c3.124,-9.912 -2.167,-20.516 -11.965,-23.98c-74.936,-26.811 -132.939,-73.24 -153.944,-126.864c-2.088,-5.628 -1.353,-11.915 1.977,-16.909c3.329,-4.994 8.851,-8.091 14.848,-8.327c17.244,-0.92 40.429,-1.834 57.202,-2.496c10.346,-0.406 19.166,7.43 19.981,17.751c2.912,34.875 39.659,70.62 90.287,92.26c0.729,0.31 1.556,0.297 2.277,-0.034c0.72,-0.332 1.267,-0.953 1.505,-1.709c3.917,-12.406 19.309,-61.216 28.884,-91.578c1.979,-6.275 1.146,-13.099 -2.283,-18.713c-3.43,-5.614 -9.121,-9.47 -15.607,-10.574c-65.828,-11.201 -240.059,-40.847 -310.694,-52.866c-7.732,-1.315 -14.537,-5.864 -18.708,-12.506c-4.171,-6.641 -5.314,-14.746 -3.141,-22.282c19.131,-66.363 65.068,-225.705 81.83,-283.849c3.56,-12.35 15.849,-20.039 28.513,-17.839c17.863,3.104 43.051,7.48 62.32,10.828c7.058,1.226 13.23,5.471 16.901,11.623c3.67,6.152 4.474,13.6 2.201,20.393c-18.347,54.827 -59.481,177.748 -75.732,226.312c-1.699,5.077 -1.093,10.643 1.658,15.236c2.751,4.592 7.372,7.753 12.65,8.651c50.826,8.648 179.404,30.526 227.728,38.749c10.742,1.828 21.185,-4.552 24.462,-14.944c15.159,-48.068 56.342,-178.657 72.891,-231.133c4.025,-12.765 16.853,-20.601 30.047,-18.356c21.086,3.588 52.331,8.905 74.739,12.717c6.841,1.165 12.818,5.293 16.328,11.28c3.51,5.987 4.194,13.219 1.869,19.758c-19.058,53.589 -61.988,174.302 -79.215,222.744c-1.827,5.136 -1.29,10.816 1.467,15.519c2.757,4.702 7.452,7.945 12.825,8.859c51.8,8.814 182.382,31.033 233.847,39.79c12.213,2.078 24.081,-5.193 27.777,-17.017c15.893,-50.846 56.757,-181.586 72.293,-231.289c3.549,-11.355 14.67,-18.582 26.488,-17.213c18.765,2.173 46.726,5.412 67.263,7.79c6.452,0.747 12.208,4.404 15.627,9.926c3.419,5.522 4.126,12.304 1.919,18.413c-22.528,62.342 -80.56,222.939 -102.67,284.126c-5.055,13.989 -19.401,22.352 -34.065,19.857c-72.525,-12.341 -279.394,-47.54 -336.264,-57.217c-8.454,-1.438 -16.719,3.407 -19.592,11.487c-7.316,20.572 -21.051,59.192 -29.697,83.505c-1.732,4.866 -0.772,10.285 2.527,14.26c3.298,3.975 8.447,5.918 13.55,5.112c40.239,-6.431 79.736,-24.34 112.551,-58.249c5.602,-5.843 14.277,-7.519 21.652,-4.185c15.288,6.856 41.252,18.594 60.013,27.076c4.679,2.114 7.833,6.611 8.228,11.73c0.394,5.119 -2.034,10.047 -6.333,12.853c-71.037,45.231 -150.343,63.333 -225.328,62.036c-7.068,-0.175 -13.448,4.21 -15.817,10.871c-0.491,1.299 -0.975,2.662 -1.467,4.044c-1.741,4.893 -1.173,10.312 1.544,14.738c2.718,4.427 7.293,7.385 12.444,8.047c27.233,3.443 54.283,6.044 81.146,7.766c5.917,0.363 11.329,3.457 14.645,8.371c3.316,4.915 4.158,11.092 2.279,16.715c-4.189,12.552 -9.267,27.75 -13.196,39.505c-1.662,4.973 -5.245,9.074 -9.95,11.389c-4.705,2.314 -10.141,2.65 -15.095,0.932c-29.026,-9.957 -58.828,-18.438 -89.399,-25.474c-7.161,-1.631 -14.409,2.353 -16.87,9.273c-0.867,2.428 -1.782,5.001 -2.668,7.492c-1.285,3.617 -1.017,7.604 0.74,11.017c1.758,3.413 4.849,5.947 8.54,7.001c97.339,28.282 181.683,87.794 224.658,185.215c2.762,6.362 2.171,13.683 -1.577,19.52c-3.747,5.837 -10.157,9.422 -17.092,9.559c-20.023,0.503 -45.903,1.014 -63.517,1.363c-10.648,0.209 -19.618,-7.908 -20.469,-18.524c-5.471,-58.901 -61.131,-109.144 -135.603,-138.328c-5.296,-2.052 -11.198,-1.875 -16.361,0.492c-5.164,2.366 -9.151,6.721 -11.054,12.072c-21.816,61.194 -87.953,247.162 -113.558,319.163c-2.627,7.387 -2.091,15.529 1.48,22.508c3.571,6.979 9.862,12.176 17.39,14.367c61.594,18.267 117.81,46.151 163.24,82.643c8.161,6.72 19.38,8.347 29.113,4.223c64.115,-27.083 302.545,-128.105 379.369,-160.655c4.345,-1.838 7.123,-6.149 7.002,-10.866c-0.121,-4.717 -3.116,-8.879 -7.55,-10.492c-44.451,-15.769 -102.988,-15.988 -165.302,13.093c-5.538,2.609 -12.03,2.18 -17.177,-1.134c-8.662,-5.546 -22.573,-14.503 -34.849,-22.407c-5.084,-3.272 -7.898,-9.122 -7.282,-15.135c0.617,-6.014 4.56,-11.171 10.201,-13.343c109.366,-41.358 216.686,-24.084 289.87,18.595c6.111,3.64 13.59,4.151 20.139,1.376c4.514,-1.872 9.984,-4.189 15.45,-6.506c5.855,-2.479 10.103,-7.697 11.345,-13.932c1.242,-6.236 -0.684,-12.683 -5.142,-17.216c-40.986,-41.463 -84.633,-82.401 -130.915,-122.841c-5.847,-5.091 -8.639,-12.849 -7.378,-20.498c1.261,-7.65 6.395,-14.101 13.567,-17.046c19.193,-7.888 42.291,-17.374 57.076,-23.446c8.859,-3.637 19.055,-0.929 24.942,6.624c42.236,54.105 85.461,106.387 129.749,156.747c4.635,5.262 12.118,6.967 18.575,4.231c1.146,-0.485 2.342,-0.992 3.566,-1.511c12.767,-5.411 19.91,-19.108 17.04,-32.673c-11.502,-54.911 19.763,-118.361 98.415,-172.686c8.285,-5.705 19.506,-4.44 26.313,2.967c7.978,8.62 18.671,20.257 27.722,30.106c4.031,4.389 5.76,10.421 4.666,16.279c-1.095,5.858 -4.884,10.859 -10.229,13.496c-43.925,21.192 -65.761,48.76 -70.435,76.201c-1.005,5.684 1.181,11.462 5.697,15.057c4.515,3.595 10.635,4.432 15.95,2.18c40.129,-16.712 126.88,-53.468 168.257,-70.999c5.238,-2.22 9.071,-6.847 10.276,-12.407c1.205,-5.56 -0.368,-11.359 -4.217,-15.548c-35.142,-38.242 -116.688,-126.983 -159.105,-173.143c-6.214,-6.762 -8.816,-16.09 -7,-25.092c1.817,-9.002 7.832,-16.591 16.182,-20.415c84.985,-38.92 295.775,-135.453 354.529,-162.359c9.195,-4.211 20.055,-2.02 26.898,5.427c10,10.882 24.692,26.871 36.396,39.608c4.272,4.649 6.001,11.093 4.63,17.255c-1.372,6.163 -5.67,11.266 -11.51,13.665c-61.456,25.24 -217.16,89.188 -285.113,117.096c-7.42,3.048 -12.882,9.532 -14.624,17.362c-1.743,7.83 0.454,16.018 5.882,21.925c31.275,34.034 85.172,92.687 110.463,120.21c8.312,9.045 21.415,11.885 32.726,7.092c58.582,-24.821 237.071,-100.445 297.695,-126.131c12.232,-5.183 26.402,-2.112 35.391,7.67c11.666,12.696 27.973,30.442 40.798,44.398c4.577,4.981 6.405,11.898 4.886,18.49c-1.52,6.592 -6.191,12.011 -12.486,14.485c-62.741,24.664 -214.957,84.499 -282.655,111.111c-7.556,2.97 -13.163,9.474 -14.986,17.386c-1.824,7.912 0.37,16.214 5.863,22.192c30.564,33.261 81.985,89.219 106.319,115.7c8.14,8.858 20.937,11.706 32.065,7.136c60.793,-24.968 253.559,-104.138 309.448,-127.091c9.209,-3.783 19.8,-1.426 26.536,5.905c10.855,11.812 27.589,30.023 40.982,44.597c4.704,5.119 6.509,12.266 4.799,19.005c-1.709,6.739 -6.702,12.161 -13.278,14.419c-85.07,29.213 -327.151,112.341 -392.245,134.694c-9.893,3.397 -20.858,0.616 -27.936,-7.086c-34.575,-37.626 -136.493,-148.536 -173.556,-188.87c-8.24,-8.967 -21.146,-11.942 -32.48,-7.486c-36.871,14.493 -119.05,46.798 -164.974,64.85c-5.26,2.065 -8.558,7.319 -8.132,12.953c0.425,5.635 4.475,10.333 9.985,11.585c39.944,9.072 89.204,6.875 142.608,-13.45c8.105,-3.115 17.291,-0.962 23.166,5.432c8.102,8.765 19.802,21.497 30.055,32.655c4.34,4.72 5.673,11.472 3.452,17.488c-2.221,6.015 -7.621,10.281 -13.987,11.049c-123.289,15.167 -217.34,0.214 -278.714,-31.701c-6.805,-3.645 -14.867,-4.118 -22.052,-1.293c-2.924,1.095 -6.136,2.357 -9.348,3.62c-4.686,1.841 -8.15,5.892 -9.241,10.807c-1.091,4.915 0.333,10.051 3.8,13.702c43.893,46.092 88.79,90.329 134.75,132.607c4.751,4.353 6.946,10.833 5.818,17.178c-1.128,6.344 -5.423,11.671 -11.383,14.119c-18.871,7.753 -43.382,17.819 -59.9,24.603c-10.673,4.382 -22.957,0.745 -29.524,-8.741c-36.544,-52.503 -77.038,-104.166 -121.424,-155.033c-5.857,-6.695 -15.287,-8.99 -23.566,-5.736c-3.629,1.424 -7.64,3.001 -11.596,4.556c-5.404,2.125 -9.715,6.351 -11.947,11.711c-2.232,5.36 -2.195,11.397 0.104,16.729c31.286,71.117 -8.886,152.36 -172.793,189.494c-4.41,1.005 -9.039,0.165 -12.816,-2.325c-3.776,-2.49 -6.372,-6.414 -7.185,-10.863c-2.269,-12.24 -5.257,-28.576 -7.292,-39.703c-1.267,-6.932 3.1,-13.647 9.95,-15.301c76.543,-18.417 109.577,-54.415 112.133,-90.742c0.359,-5.181 -1.963,-10.185 -6.151,-13.256c-4.188,-3.071 -9.659,-3.781 -14.492,-1.881c-70.036,27.101 -317.735,124.47 -388.384,152.242c-4.537,1.785 -8.049,5.49 -9.588,10.115c-1.54,4.626 -0.949,9.697 1.613,13.844c26.281,42.696 36.995,87.7 33.312,131.582c-0.943,10.593 6.47,20.11 16.971,21.79c75.928,12.217 351.978,56.369 420.865,67.387c8.934,1.429 17.472,-4.225 19.643,-13.008c7.187,-29.704 12.246,-60.047 15.203,-91.031c0.483,-5.284 3.15,-10.127 7.356,-13.362c4.207,-3.234 9.572,-4.567 14.803,-3.677c22.546,3.82 58.542,9.945 81.087,13.781c4.784,0.816 8.899,3.85 11.092,8.18c2.192,4.33 2.203,9.443 0.028,13.782c-13.872,27.803 -26.391,55.393 -37.494,82.761c-1.872,4.663 -1.521,9.925 0.954,14.297c2.475,4.373 6.806,7.381 11.768,8.175c22.62,3.623 58.653,9.386 78.792,12.607c8.47,1.356 16.564,-4.015 18.604,-12.347c6.886,-28.701 11.789,-58.004 14.729,-87.907c0.546,-5.786 3.477,-11.084 8.09,-14.62c4.612,-3.536 10.489,-4.992 16.218,-4.017c21.316,3.608 53.251,9.042 75.191,12.775c5.702,0.972 10.607,4.584 13.228,9.739c2.621,5.156 2.647,11.248 0.072,16.426c-13.077,26.408 -24.927,52.622 -35.499,78.637c-1.745,4.334 -1.421,9.226 0.879,13.293c2.3,4.066 6.327,6.864 10.94,7.602c20.458,3.276 53.034,8.487 74.499,11.92c12.339,1.974 24.099,-5.948 26.905,-18.126c6.14,-27.377 10.505,-55.293 13.103,-83.75c0.401,-4.57 2.694,-8.765 6.326,-11.568c3.631,-2.804 8.269,-3.961 12.792,-3.191c20.984,3.559 56.049,9.526 79.685,13.547c5.76,0.982 10.716,4.63 13.365,9.839c2.648,5.208 2.676,11.363 0.075,16.595c-11.781,23.799 -22.563,47.441 -32.31,70.917c-2.324,5.656 -1.935,12.064 1.056,17.397c2.991,5.333 8.256,9.006 14.294,9.972c24.166,3.872 60.457,9.676 82.666,13.228c11.296,1.807 22.252,-4.779 25.955,-15.602c16.055,-46.92 57.942,-169.331 75.141,-219.594c4.468,-13.056 17.014,-21.599 30.799,-20.97c77.841,3.549 328.904,14.996 410.744,18.727c6.772,0.309 13.118,3.394 17.545,8.528c4.427,5.135 6.544,11.866 5.852,18.61c-0.963,9.397 -2.05,20.001 -3.012,29.384c-1.471,14.346 -14.106,24.907 -28.485,23.811c-72.984,-5.565 -279.38,-21.302 -341.289,-26.023c-10.473,-0.798 -20.168,5.559 -23.61,15.482c-12.444,35.873 -41.594,119.909 -55.859,161.035c-2.022,5.828 -1.36,12.253 1.807,17.547c3.168,5.294 8.516,8.915 14.608,9.889c66.09,10.571 247.081,39.519 312.534,49.988c4.996,0.801 9.99,-1.439 12.715,-5.702c2.725,-4.263 2.66,-9.736 -0.165,-13.934c-20.472,-29.48 -61.442,-55.379 -124.273,-68.207c-5.784,-1.183 -10.827,-4.691 -13.947,-9.702c-3.121,-5.012 -4.045,-11.085 -2.555,-16.798c1.847,-7.286 3.947,-15.34 5.841,-22.603c1.556,-5.97 5.489,-11.042 10.883,-14.036c5.394,-2.994 11.779,-3.649 17.668,-1.812c351.417,109.861 187.672,375.095 -114.586,347.433c-5.939,-0.563 -11.286,-3.836 -14.487,-8.87c-3.202,-5.034 -3.9,-11.264 -1.891,-16.881c3.815,-10.759 8.254,-23.175 11.505,-32.267c2.668,-7.459 10.17,-12.054 18.027,-11.042c73.199,9.304 129.162,-0.474 166.694,-20.222c3.931,-2.464 5.942,-7.092 5.061,-11.647c-0.882,-4.555 -4.475,-8.098 -9.041,-8.917c-72.204,-13.158 -264.244,-47.586 -317.868,-57.199c-8.109,-1.454 -16.071,3.208 -18.771,10.992c-11.994,34.577 -43.865,126.459 -58.383,168.314c-1.916,5.522 -1.461,11.591 1.257,16.765c2.718,5.175 7.455,8.994 13.089,10.552c60.68,16.775 232.002,64.137 301.674,83.398c7.409,2.048 13.52,7.291 16.67,14.303c3.151,7.011 3.014,15.062 -0.374,21.962c-5.545,11.292 -11.733,23.895 -16.448,33.496c-4.389,8.939 -14.646,13.334 -24.146,10.348c-63.696,-20.025 -293.865,-92.387 -374.813,-117.836c-7.465,-2.347 -13.667,-7.608 -17.199,-14.592c-3.532,-6.983 -4.095,-15.096 -1.561,-22.5c18.219,-53.244 57.292,-167.432 72.992,-213.315c1.686,-4.928 1.137,-10.347 -1.505,-14.836c-2.641,-4.489 -7.111,-7.601 -12.238,-8.52c-24.292,-4.355 -64.404,-11.546 -87.573,-15.7c-10.303,-1.848 -20.312,4.477 -23.065,14.576c-6.957,25.838 -12.531,51.458 -16.654,76.85c-1.002,6.372 -4.514,12.077 -9.751,15.841c-5.238,3.764 -11.765,5.274 -18.124,4.192c-18.883,-3.194 -45.196,-7.672 -65.764,-11.171c-7.084,-1.207 -13.118,-5.826 -16.131,-12.35c-3.013,-6.524 -2.618,-14.113 1.057,-20.288c12.683,-21.444 23.953,-43.305 33.852,-65.57c2.218,-5.06 1.994,-10.857 -0.607,-15.731c-2.601,-4.875 -7.292,-8.288 -12.73,-9.263c-22.787,-4.103 -57.627,-10.349 -77.495,-13.91c-8.73,-1.567 -17.219,3.765 -19.598,12.309c-7.493,27.205 -13.455,54.17 -17.811,80.884c-1.026,6.5 -4.612,12.319 -9.957,16.158c-5.345,3.839 -12.005,5.379 -18.493,4.275c-18.807,-3.181 -44.773,-7.599 -65.143,-11.065c-7.112,-1.211 -13.171,-5.849 -16.196,-12.398c-3.026,-6.55 -2.629,-14.169 1.059,-20.37c13.293,-22.483 25.032,-45.423 35.264,-68.803c2.022,-4.686 1.793,-10.038 -0.623,-14.533c-2.415,-4.495 -6.751,-7.641 -11.774,-8.541c-22.759,-4.096 -58.915,-10.577 -78.912,-14.162c-8.278,-1.486 -16.332,3.555 -18.613,11.651c-8.062,28.915 -14.396,57.551 -18.917,85.902c-0.902,5.845 -4.112,11.084 -8.909,14.542c-4.798,3.459 -10.783,4.848 -16.614,3.855c-20.312,-3.44 -50.346,-8.55 -72.152,-12.261c-6.119,-1.042 -11.326,-5.043 -13.91,-10.686c-2.583,-5.644 -2.208,-12.2 1.002,-17.512c15.257,-25.445 28.531,-51.468 39.871,-78.062c1.6,-3.803 1.385,-8.127 -0.584,-11.752c-1.969,-3.625 -5.479,-6.16 -9.54,-6.888c-72.309,-12.972 -359.649,-64.484 -423.937,-76.009c-7.597,-1.362 -15.212,2.296 -18.897,9.077c-24.35,43.271 -64.094,82.617 -117.812,113.999c-4.622,2.676 -7.76,7.325 -8.515,12.612c-0.755,5.287 0.958,10.629 4.646,14.491c86.418,90.628 504.145,528.155 569.687,596.804c5.223,5.471 13.266,7.18 20.262,4.306c69.417,-28.509 429.823,-176.529 519.875,-213.514c12.264,-5.037 26.367,-1.898 35.338,7.864c30.518,33.211 99.065,107.806 121.56,132.285c4.36,4.747 11.321,6.065 17.116,3.241c15.628,-7.657 30.568,-15.688 44.797,-24.111c7.285,-4.35 16.623,-2.991 22.364,3.257c7.951,8.641 19.284,20.975 28.746,31.271c3.539,3.853 4.751,9.303 3.179,14.293c-1.573,4.99 -5.69,8.76 -10.799,9.888c-12.867,2.859 -25.48,6.081 -37.844,9.655c-4.048,1.187 -7.195,4.38 -8.325,8.444c-1.13,4.064 -0.082,8.424 2.773,11.53c5.363,5.847 11.331,12.342 15.718,17.116c3.832,4.171 9.947,5.335 15.043,2.862c16.313,-7.953 31.881,-16.314 46.677,-25.1c6.876,-4.118 15.7,-2.839 21.123,3.063c7.171,7.793 17.311,18.828 26.324,28.636c4.071,4.432 5.442,10.712 3.591,16.438c-1.852,5.726 -6.641,10.013 -12.537,11.222c-54.551,14.651 -155.374,57.127 -189.878,79.8c-2.803,2.603 -6.528,3.982 -10.351,3.83c-3.822,-0.151 -7.427,-1.82 -10.015,-4.637c-8.86,-9.18 -21.839,-23.305 -31.955,-34.313c-3.216,-3.501 -4.389,-8.417 -3.1,-12.993c1.288,-4.575 4.855,-8.156 9.425,-9.464c12.995,-3.73 25.712,-7.614 38.145,-11.657c4.064,-1.332 7.173,-4.638 8.254,-8.776c1.08,-4.138 -0.016,-8.542 -2.91,-11.691c-4.859,-5.292 -10.188,-11.09 -14.317,-15.584c-4.224,-4.599 -11.028,-5.748 -16.529,-2.792c-14.1,7.64 -27.796,15.862 -41.093,24.666c-7.936,5.293 -18.544,4.017 -24.998,-3.007c-8.79,-9.548 -21.009,-22.846 -30.479,-33.151c-3.055,-3.326 -4.168,-7.997 -2.942,-12.343c1.227,-4.345 4.617,-7.745 8.96,-8.983c13.591,-3.888 26.879,-7.945 39.857,-12.173c3.923,-1.289 6.922,-4.481 7.964,-8.476c1.042,-3.995 -0.017,-8.245 -2.81,-11.285c-19.516,-21.241 -56.496,-61.483 -73.754,-80.264c-5.592,-6.086 -14.385,-8.043 -22.03,-4.903c-24.934,10.241 -79.756,32.756 -102.335,42.03c-2.555,1.048 -4.518,3.168 -5.367,5.796c-0.848,2.628 -0.497,5.496 0.962,7.841c0.918,1.45 107.065,110.187 112.729,114.412c3.676,2.738 5.595,7.243 5.023,11.791c-0.572,4.548 -3.548,8.436 -7.788,10.178c-18.785,7.72 -45.555,18.714 -60.909,25.021c-6.837,2.805 -14.694,0.107 -18.364,-6.307c-4.745,-8.248 -101.434,-122.53 -103.736,-124.354c-2.152,-1.707 -4.309,-3.373 -6.471,-4.995c-2.635,-1.966 -6.109,-2.405 -9.15,-1.156c-29.205,11.992 -181.909,74.708 -237.277,97.448c-4.529,1.86 -7.848,5.838 -8.866,10.627c-1.018,4.79 0.396,9.774 3.778,13.315c1.625,1.703 3.198,3.35 4.605,4.824c3.454,3.617 8.771,4.747 13.397,2.847c29.908,-12.283 138.823,-57.015 174.857,-71.814c7.091,-2.912 15.232,-1.366 20.761,3.942c24.384,23.409 91.387,87.735 121.458,116.604c3.292,3.161 4.765,7.772 3.913,12.257c-0.851,4.484 -3.912,8.234 -8.134,9.969c-18.51,7.602 -45.875,18.841 -60.871,25c-6.491,2.665 -13.955,1.004 -18.703,-4.162c-16.993,-18.493 -56.792,-61.804 -73.109,-79.56c-4.309,-4.69 -11.084,-6.197 -16.975,-3.778c-20.768,8.53 -69.172,28.409 -92.169,37.854c-2.834,1.164 -4.911,3.654 -5.548,6.651c-0.637,2.998 87.531,97.538 91.553,101.75c4.151,4.351 10.676,5.438 16.014,2.669c11.652,-6.075 22.895,-12.37 33.716,-18.897c4.858,-2.947 11.121,-2.058 14.966,2.126c7.305,7.946 19.379,21.085 29.781,32.405c3.933,4.281 5.231,10.359 3.392,15.873c-1.84,5.514 -6.528,9.594 -12.244,10.656c-54.998,14.917 -162.519,60.794 -193.531,81.894c-5.515,3.751 -12.947,2.892 -17.46,-2.019c-8.264,-8.994 -20.693,-22.519 -30.719,-33.43c-3.49,-3.8 -4.766,-9.136 -3.373,-14.104c1.394,-4.968 5.258,-8.862 10.216,-10.293c5.759,-1.665 11.463,-3.359 17.112,-5.083c3.583,-1.1 6.362,-3.944 7.378,-7.552c1.016,-3.607 0.13,-7.484 -2.352,-10.292c-4.95,-5.603 -79.681,-90.154 -81.301,-91.988c-3.919,-4.434 -10.217,-5.899 -15.691,-3.651c-19.758,8.114 -66.482,27.304 -89.243,36.652c-2.943,1.209 -5.109,3.78 -5.8,6.885c-0.691,3.106 0.18,6.353 2.333,8.695c16.279,17.716 49.572,53.946 67.198,73.127c2.63,2.862 3.694,6.83 2.85,10.624c-0.845,3.795 -3.491,6.936 -7.087,8.413c-16.456,6.759 -41.941,17.226 -57.222,23.502c-7.632,3.134 -16.415,0.874 -21.587,-5.553c-20.627,-25.638 -72.576,-90.204 -97.765,-121.511c-3.329,-4.138 -4.511,-9.604 -3.188,-14.748c1.323,-5.143 4.996,-9.361 9.909,-11.378c36.587,-15.027 111.764,-45.902 146.622,-60.219Zm-679.411,-797.234c3.41,3.857 4.559,9.214 3.03,14.13c-1.529,4.916 -5.513,8.676 -10.509,9.919c-44.387,10.524 -90.914,14.387 -136.68,12.045c-3.792,-0.218 -7.272,-2.171 -9.435,-5.294c-2.162,-3.123 -2.765,-7.068 -1.635,-10.694c8.736,-28.078 27.681,-88.852 38.017,-122.01c1.44,-4.618 5.257,-8.101 9.986,-9.113c4.73,-1.012 9.637,0.604 12.841,4.228c24.186,27.365 70.207,79.434 94.385,106.789Zm-237.9,6.518c-2.896,8.238 -11.726,12.776 -20.11,10.335c-43.223,-12.868 -83.092,-31.726 -116.505,-56.081c-3.152,-2.368 -4.803,-6.236 -4.333,-10.15c0.47,-3.914 2.989,-7.281 6.611,-8.836c36.824,-15.854 123.218,-52.953 163.582,-70.286c3.742,-1.608 8.081,-0.849 11.056,1.932c2.975,2.781 4.024,7.059 2.673,10.901c-11.605,32.996 -33.166,94.299 -42.974,122.185Zm410.771,-120.286c4.623,0.828 8.525,3.915 10.394,8.224c1.869,4.308 1.458,9.266 -1.096,13.208c-18.867,27.4 -45.915,52.404 -80.616,73.101c-6.48,3.833 -14.748,2.692 -19.948,-2.754c-21.819,-22.784 -78.913,-82.584 -107.633,-112.666c-2.404,-2.517 -2.916,-6.295 -1.269,-9.362c1.648,-3.066 5.08,-4.725 8.507,-4.111c46.738,8.379 148.473,26.617 191.661,34.36Zm-641.381,-93.839c0.257,-3.789 2.098,-7.295 5.072,-9.659c2.973,-2.363 6.804,-3.366 10.554,-2.762c38.616,6.103 145.832,23.375 196.385,31.519c3.353,0.54 5.933,3.254 6.303,6.63c0.371,3.377 -1.559,6.585 -4.716,7.839c-43.592,17.327 -131.256,52.17 -166.494,66.175c-9.116,3.625 -19.51,-0.023 -24.361,-8.55c-16.83,-29.752 -24.221,-60.759 -22.743,-91.192Zm639.9,-73.968c6.155,-2.421 13.159,-0.058 16.59,5.597c18.853,31.662 26.919,64.838 24.886,97.308c-0.251,3.155 -1.808,6.062 -4.296,8.019c-2.489,1.956 -5.681,2.785 -8.807,2.285c-37.144,-5.862 -151.636,-24.175 -201.453,-32.142c-2.901,-0.464 -5.132,-2.812 -5.449,-5.732c-0.316,-2.92 1.361,-5.691 4.094,-6.765c44.355,-17.436 142.401,-55.978 174.435,-68.57Zm-526.958,-88.549c5.579,-3.263 12.669,-2.266 17.131,2.409c20.872,21.816 79.886,83.636 109.003,114.138c2.353,2.466 2.854,6.165 1.24,9.167c-1.614,3.002 -4.976,4.625 -8.33,4.021c-46.663,-8.393 -149.463,-26.884 -192.379,-34.604c-4.481,-0.804 -8.262,-3.796 -10.077,-7.971c-1.814,-4.175 -1.421,-8.981 1.048,-12.805c19.142,-27.935 46.786,-53.393 82.364,-74.355Zm339.011,-25.906c2.68,-7.541 10.772,-11.688 18.458,-9.459c43.692,12.936 83.97,31.992 117.642,56.65c3.307,2.5 5.029,6.573 4.52,10.686c-0.51,4.114 -3.174,7.643 -6.991,9.26c-38.211,16.236 -126.757,53.753 -166.066,70.408c-3.384,1.433 -7.294,0.731 -9.968,-1.789c-2.674,-2.52 -3.605,-6.383 -2.374,-9.845c11.71,-32.928 34.843,-97.974 44.779,-125.911Zm-241.972,3.996c-2.735,-3.093 -3.667,-7.386 -2.46,-11.334c1.208,-3.949 4.38,-6.986 8.378,-8.021c46.009,-11.442 94.457,-15.642 142.073,-13.129c3.81,0.226 7.303,2.195 9.468,5.338c2.164,3.143 2.759,7.108 1.611,10.748c-8.998,28.586 -28.648,90.898 -38.977,123.651c-1.356,4.297 -4.918,7.532 -9.326,8.468c-4.407,0.936 -8.977,-0.573 -11.961,-3.949c-24.954,-28.229 -75.306,-85.189 -98.806,-111.772Zm-1543.45,-152.571c37.796,41.131 25.084,92.346 -39.757,118.977c-59.737,24.534 -138.922,11.06 -176.717,-30.07c-37.796,-41.13 -19.981,-94.441 39.757,-118.976c59.737,-24.534 138.922,-11.061 176.717,30.069Z" style="fill:#4f3423;"/></g></g></g></svg>